<?xml version="1.0" encoding="UTF-8"?>
<svg id="Layer_1" data-name="Layer 1" xmlns="http://www.w3.org/2000/svg" viewBox="0 0 785 586">
  <defs>
    <style>
      .cls-1 {
        opacity: .5;
      }
    </style>
  </defs>
  <g>
    <path d="m44.99,387.28c-3.07,1.16-6.42,1.74-10.06,1.74-6.14,0-11.5-1.37-16.09-4.1-4.59-2.74-8.12-6.41-10.59-11.03-2.47-4.61-3.71-9.69-3.71-15.21,0-6.02,1.23-11.41,3.71-16.17,2.47-4.75,5.92-8.47,10.35-11.15,4.43-2.68,9.46-4.02,15.11-4.02,3.48,0,6.69.47,9.66,1.41,2.96.94,5.58,2.13,7.86,3.57l-3.75,9.04c-4.4-3.15-8.88-4.73-13.44-4.73-3.48,0-6.72.95-9.74,2.86-3.01,1.91-5.42,4.51-7.21,7.79-1.79,3.29-2.69,6.9-2.69,10.82,0,4.15.83,7.86,2.48,11.15,1.66,3.29,4.02,5.86,7.09,7.71,3.07,1.85,6.61,2.78,10.63,2.78,2.88,0,5.47-.44,7.78-1.33,2.31-.88,4.25-2.02,5.83-3.4l3.99,8.62c-1.74,1.27-4.14,2.49-7.21,3.65Z"/>
    <path d="m65.24,342.88c2.72-4.73,6.4-8.5,11.04-11.32,4.64-2.82,9.71-4.23,15.2-4.23s10.47,1.41,15.11,4.23c4.64,2.82,8.35,6.61,11.12,11.36,2.77,4.75,4.16,9.87,4.16,15.34s-1.37,10.72-4.11,15.42c-2.74,4.7-6.45,8.43-11.12,11.19-4.67,2.76-9.72,4.15-15.15,4.15s-10.55-1.37-15.2-4.1c-4.64-2.74-8.32-6.45-11.04-11.15-2.72-4.7-4.07-9.87-4.07-15.5s1.36-10.66,4.07-15.38Zm8.47,26.16c1.85,3.26,4.36,5.86,7.54,7.79,3.18,1.94,6.67,2.9,10.47,2.9s7.17-.95,10.27-2.86c3.1-1.91,5.55-4.5,7.37-7.79,1.82-3.29,2.73-6.9,2.73-10.82s-.92-7.55-2.77-10.86c-1.85-3.32-4.35-5.94-7.5-7.88-3.15-1.93-6.6-2.9-10.35-2.9s-7.27.97-10.39,2.9c-3.12,1.94-5.6,4.56-7.41,7.88-1.82,3.32-2.73,6.94-2.73,10.86s.92,7.52,2.77,10.78Z"/>
    <path d="m144.03,328v51.08h29.25v9.29h-38.78v-60.36h9.53Z"/>
    <path d="m195.36,328v51.08h29.25v9.29h-38.78v-60.36h9.53Z"/>
    <path d="m267.63,374.18h-21.59l-5.7,14.18h-9.37l26.24-62.85h.57l26.24,62.85h-10.92l-5.46-14.18Zm-3.18-8.29l-7.41-19.07-7.66,19.07h15.07Z"/>
    <path d="m330,362.57c1.87,2.43,2.81,5.25,2.81,8.46,0,5.86-1.94,10.21-5.83,13.06-3.88,2.85-8.68,4.27-14.38,4.27h-18.5v-60.36h16.21c6.19,0,11,1.29,14.42,3.86,3.42,2.57,5.13,6.34,5.13,11.32,0,3.15-.67,5.87-2,8.17-1.33,2.29-3.22,4.13-5.66,5.51,3.31,1.38,5.91,3.29,7.78,5.72Zm-26.36-8.87h8.23c2.72,0,4.77-.8,6.15-2.4,1.38-1.6,2.08-3.62,2.08-6.05,0-2.65-.83-4.64-2.49-5.97-1.66-1.33-3.95-1.99-6.88-1.99h-7.09v16.42Zm16.38,23.59c2.01-1.41,3.01-3.47,3.01-6.18,0-2.87-1.1-4.95-3.3-6.22-2.2-1.27-4.93-1.91-8.19-1.91h-7.9v16.42h8.56c3.2,0,5.81-.7,7.82-2.11Z"/>
    <path d="m345.85,342.88c2.72-4.73,6.4-8.5,11.04-11.32,4.64-2.82,9.71-4.23,15.2-4.23s10.47,1.41,15.11,4.23c4.64,2.82,8.35,6.61,11.12,11.36,2.77,4.75,4.16,9.87,4.16,15.34s-1.37,10.72-4.11,15.42c-2.74,4.7-6.45,8.43-11.12,11.19-4.67,2.76-9.72,4.15-15.15,4.15s-10.55-1.37-15.2-4.1c-4.64-2.74-8.32-6.45-11.04-11.15-2.72-4.7-4.07-9.87-4.07-15.5s1.36-10.66,4.07-15.38Zm8.47,26.16c1.85,3.26,4.36,5.86,7.54,7.79,3.18,1.94,6.67,2.9,10.47,2.9s7.17-.95,10.27-2.86c3.1-1.91,5.55-4.5,7.37-7.79,1.82-3.29,2.73-6.9,2.73-10.82s-.92-7.55-2.77-10.86c-1.85-3.32-4.35-5.94-7.5-7.88-3.15-1.93-6.6-2.9-10.35-2.9s-7.27.97-10.39,2.9c-3.12,1.94-5.6,4.56-7.41,7.88-1.82,3.32-2.73,6.94-2.73,10.86s.92,7.52,2.77,10.78Z"/>
    <path d="m447.53,388.36l-13.36-20.98h-9.53v20.98h-9.53v-60.36h16.7c6.63,0,11.94,1.71,15.93,5.14,3.99,3.43,5.99,8.18,5.99,14.26,0,3.7-.77,7.14-2.32,10.32-1.55,3.18-3.98,5.62-7.29,7.34l14.42,23.3h-11Zm-22.9-30.26h8.47c3.8,0,6.56-1.06,8.27-3.19,1.71-2.13,2.57-4.52,2.57-7.17,0-1.55-.33-3.11-.98-4.68-.65-1.58-1.77-2.93-3.34-4.06-1.58-1.13-3.64-1.7-6.19-1.7h-8.8v20.81Z"/>
    <path d="m500.17,374.18h-21.59l-5.7,14.18h-9.37l26.24-62.85h.57l26.24,62.85h-10.92l-5.46-14.18Zm-3.18-8.29l-7.41-19.07-7.66,19.07h15.07Z"/>
    <path d="m557.36,328v9.29h-15.32v51.08h-9.45v-51.08h-14.91v-9.29h39.68Z"/>
    <path d="m578.96,328v60.36h-9.53v-60.36h9.53Z"/>
    <path d="m595.66,342.88c2.72-4.73,6.4-8.5,11.04-11.32,4.64-2.82,9.71-4.23,15.2-4.23s10.47,1.41,15.11,4.23c4.64,2.82,8.35,6.61,11.12,11.36,2.77,4.75,4.16,9.87,4.16,15.34s-1.37,10.72-4.11,15.42c-2.74,4.7-6.45,8.43-11.12,11.19-4.67,2.76-9.72,4.15-15.15,4.15s-10.55-1.37-15.2-4.1c-4.64-2.74-8.32-6.45-11.04-11.15-2.72-4.7-4.07-9.87-4.07-15.5s1.36-10.66,4.07-15.38Zm8.47,26.16c1.85,3.26,4.36,5.86,7.54,7.79,3.18,1.94,6.67,2.9,10.47,2.9s7.17-.95,10.27-2.86c3.1-1.91,5.55-4.5,7.37-7.79,1.82-3.29,2.73-6.9,2.73-10.82s-.92-7.55-2.77-10.86c-1.85-3.32-4.35-5.94-7.5-7.88-3.15-1.93-6.6-2.9-10.35-2.9s-7.27.97-10.39,2.9c-3.12,1.94-5.6,4.56-7.41,7.88-1.82,3.32-2.73,6.94-2.73,10.86s.92,7.52,2.77,10.78Z"/>
    <path d="m717.31,328v62.52h-.24l-42.78-42.2.24,40.05h-9.61v-62.43h.49l42.61,42.7-.16-40.63h9.45Z"/>
    <path d="m751.2,336.21c-2.93,0-5.26.66-6.97,1.99-1.71,1.33-2.57,3.15-2.57,5.47s1.07,4.16,3.22,5.68c2.15,1.52,5.15,3.03,9,4.52,2.93,1.05,5.45,2.25,7.54,3.61,2.09,1.36,3.82,3.19,5.17,5.51,1.36,2.32,2.04,5.25,2.04,8.79,0,3.21-.79,6.11-2.36,8.71-1.58,2.6-3.86,4.67-6.84,6.22-2.99,1.55-6.52,2.32-10.59,2.32-3.58,0-7.12-.57-10.59-1.7-3.48-1.13-6.57-2.7-9.29-4.68l4.24-7.55c2.01,1.55,4.39,2.83,7.13,3.86,2.74,1.02,5.28,1.53,7.62,1.53,2.88,0,5.4-.71,7.58-2.11,2.17-1.41,3.26-3.58,3.26-6.51,0-2.32-.91-4.26-2.73-5.8-1.82-1.55-4.36-2.96-7.62-4.23-3.37-1.27-6.17-2.53-8.39-3.77-2.23-1.24-4.14-2.98-5.74-5.22-1.6-2.24-2.4-5.04-2.4-8.42,0-4.92,1.64-8.88,4.93-11.9,3.29-3.01,7.62-4.63,13-4.85,3.91,0,7.35.46,10.31,1.37,2.96.91,5.72,2.2,8.27,3.86l-3.58,7.38c-5.11-2.71-9.64-4.06-13.61-4.06Z"/>
  </g>
  <path d="m568.5,264.53v42.32h-199.29l14.68-14.86c30.25-30.61,53.83-55.38,70.73-74.28,16.9-18.91,31.06-38.04,42.48-57.4,11.41-19.36,17.13-37.74,17.13-55.15,0-18.3-5.34-32.26-16.02-41.87-10.68-9.6-23.73-14.41-39.15-14.41-12.16,0-22.32,2.55-30.47,7.65-8.16,5.11-14.09,11.56-17.79,19.36-3.71,7.81-5.56,15.61-5.56,23.41,0,19.21,5.78,34.97,17.35,47.27l-26.25,24.31c-9.79-6-17.72-16.13-23.8-30.39-6.08-14.25-9.12-27.69-9.12-40.29,0-16.5,4.07-31.89,12.23-46.15,8.15-14.25,19.94-25.66,35.37-34.22,15.42-8.55,33.81-12.83,55.16-12.83,18.09,0,34.18,4.28,48.27,12.83,14.08,8.55,24.98,20.03,32.7,34.44,7.71,14.41,11.57,30.16,11.57,47.27s-4,34.22-12.01,51.32c-8.01,17.11-17.87,33.17-29.58,48.17-11.72,15.01-27.36,33.62-46.93,55.83l-6.67,7.65h104.99Z"/>
  <g>
    <path d="m65.18,434.43c2.72-4.73,6.4-8.5,11.04-11.32,4.64-2.82,9.71-4.23,15.2-4.23s10.47,1.41,15.11,4.23c4.64,2.82,8.35,6.61,11.12,11.36,2.77,4.75,4.16,9.87,4.16,15.34s-1.37,10.72-4.11,15.42c-2.74,4.7-6.45,8.43-11.12,11.19-4.67,2.76-9.72,4.15-15.15,4.15s-10.55-1.37-15.2-4.1c-4.64-2.74-8.32-6.45-11.04-11.15-2.72-4.7-4.07-9.87-4.07-15.5s1.36-10.66,4.07-15.38Zm8.47,26.16c1.85,3.26,4.36,5.86,7.54,7.79,3.18,1.94,6.67,2.9,10.47,2.9s7.17-.95,10.27-2.86c3.1-1.91,5.55-4.5,7.37-7.79,1.82-3.29,2.73-6.9,2.73-10.82s-.92-7.55-2.77-10.86c-1.85-3.32-4.35-5.94-7.5-7.88-3.15-1.93-6.6-2.9-10.35-2.9s-7.27.97-10.39,2.9c-3.12,1.94-5.6,4.56-7.41,7.88-1.82,3.32-2.73,6.94-2.73,10.86s.92,7.52,2.77,10.78Z"/>
    <path d="m166.87,479.91l-13.36-20.98h-9.53v20.98h-9.53v-60.36h16.7c6.63,0,11.94,1.71,15.93,5.14,3.99,3.43,5.99,8.18,5.99,14.26,0,3.7-.77,7.14-2.32,10.32-1.55,3.18-3.98,5.62-7.29,7.34l14.42,23.3h-11Zm-22.9-30.26h8.47c3.8,0,6.56-1.06,8.27-3.19,1.71-2.13,2.57-4.52,2.57-7.17,0-1.55-.33-3.11-.98-4.68-.65-1.58-1.77-2.93-3.34-4.06-1.58-1.13-3.64-1.7-6.19-1.7h-8.8v20.81Z"/>
    <path d="m198.4,445.75l1.3-1.91,22.33-24.29h12.22l-24.53,26.37,25.42,34h-12.06l-20.29-27.86-4.16,4.15v23.71h-9.61v-60.36h9.61v23.13l-.24,3.07Z"/>
    <path d="m262.69,427.76c-2.93,0-5.26.66-6.97,1.99-1.71,1.33-2.57,3.15-2.57,5.47s1.07,4.16,3.22,5.68c2.15,1.52,5.15,3.03,9,4.52,2.93,1.05,5.45,2.25,7.54,3.61,2.09,1.36,3.82,3.19,5.17,5.51,1.36,2.32,2.04,5.25,2.04,8.79,0,3.21-.79,6.11-2.36,8.71-1.58,2.6-3.86,4.67-6.84,6.22-2.99,1.55-6.52,2.32-10.59,2.32-3.58,0-7.12-.57-10.59-1.7-3.48-1.13-6.57-2.7-9.29-4.68l4.24-7.55c2.01,1.55,4.39,2.83,7.13,3.86,2.74,1.02,5.28,1.53,7.62,1.53,2.88,0,5.4-.71,7.58-2.11,2.17-1.41,3.26-3.58,3.26-6.51,0-2.32-.91-4.26-2.73-5.8-1.82-1.55-4.36-2.96-7.62-4.23-3.37-1.27-6.17-2.53-8.39-3.77-2.23-1.24-4.14-2.98-5.74-5.22-1.6-2.24-2.4-5.04-2.4-8.42,0-4.92,1.64-8.88,4.93-11.9,3.29-3.01,7.62-4.63,13-4.85,3.91,0,7.35.46,10.31,1.37,2.96.91,5.72,2.2,8.27,3.86l-3.58,7.38c-5.11-2.71-9.64-4.06-13.61-4.06Z"/>
    <path d="m340.82,479.91h-9.53v-25.7h-29.17v25.7h-9.53v-60.36h9.53v25.46h29.17v-25.46h9.53v60.36Z"/>
    <path d="m357.52,434.43c2.72-4.73,6.4-8.5,11.04-11.32,4.64-2.82,9.71-4.23,15.2-4.23s10.47,1.41,15.11,4.23c4.64,2.82,8.35,6.61,11.12,11.36,2.77,4.75,4.16,9.87,4.16,15.34s-1.37,10.72-4.11,15.42c-2.74,4.7-6.45,8.43-11.12,11.19-4.67,2.76-9.72,4.15-15.15,4.15s-10.55-1.37-15.2-4.1c-4.64-2.74-8.32-6.45-11.04-11.15-2.72-4.7-4.07-9.87-4.07-15.5s1.36-10.66,4.07-15.38Zm8.47,26.16c1.85,3.26,4.36,5.86,7.54,7.79,3.18,1.94,6.67,2.9,10.47,2.9s7.17-.95,10.27-2.86c3.1-1.91,5.55-4.5,7.37-7.79,1.82-3.29,2.73-6.9,2.73-10.82s-.92-7.55-2.77-10.86c-1.85-3.32-4.35-5.94-7.5-7.88-3.15-1.93-6.6-2.9-10.35-2.9s-7.27.97-10.39,2.9c-3.12,1.94-5.6,4.56-7.41,7.88-1.82,3.32-2.73,6.94-2.73,10.86s.92,7.52,2.77,10.78Z"/>
    <path d="m459.37,424.69c3.8,3.43,5.7,8.18,5.7,14.26,0,3.48-.68,6.73-2.04,9.74-1.36,3.01-3.54,5.47-6.56,7.38-3.01,1.91-6.88,2.86-11.61,2.86h-8.56v20.98h-9.53v-60.36h16.78c6.73,0,12,1.71,15.81,5.14Zm-8.19,23.26c1.6-1.13,2.74-2.51,3.42-4.15.68-1.63,1.02-3.19,1.02-4.68,0-2.54-.8-4.89-2.4-7.05-1.6-2.16-4.31-3.23-8.11-3.23h-8.8v20.81h8.56c2.61,0,4.71-.57,6.31-1.7Z"/>
  </g>
  <g>
    <path d="m53.21,564.14v8.76H12.17l3.02-3.08c6.23-6.34,11.09-11.47,14.57-15.38,3.48-3.92,6.4-7.88,8.75-11.89,2.35-4.01,3.53-7.81,3.53-11.42,0-3.79-1.1-6.68-3.3-8.67-2.2-1.99-4.89-2.98-8.06-2.98-2.51,0-4.6.53-6.28,1.58-1.68,1.06-2.9,2.39-3.66,4.01-.76,1.62-1.15,3.23-1.15,4.85,0,3.98,1.19,7.24,3.57,9.79l-5.41,5.03c-2.02-1.24-3.65-3.34-4.9-6.29-1.25-2.95-1.88-5.73-1.88-8.34,0-3.42.84-6.6,2.52-9.56,1.68-2.95,4.11-5.31,7.28-7.08,3.17-1.77,6.96-2.66,11.36-2.66,3.72,0,7.04.89,9.94,2.66,2.9,1.77,5.15,4.15,6.73,7.13,1.59,2.98,2.38,6.25,2.38,9.79s-.82,7.08-2.47,10.63c-1.65,3.54-3.68,6.87-6.09,9.98-2.41,3.11-5.63,6.96-9.67,11.56l-1.37,1.58h21.62Z"/>
    <path d="m65.61,527.43c2.72-4.73,6.4-8.5,11.04-11.32,4.64-2.82,9.71-4.23,15.2-4.23s10.47,1.41,15.11,4.23c4.64,2.82,8.35,6.61,11.12,11.36,2.77,4.75,4.16,9.87,4.16,15.34s-1.37,10.72-4.11,15.42c-2.74,4.7-6.45,8.43-11.12,11.19-4.67,2.76-9.72,4.15-15.15,4.15s-10.55-1.37-15.2-4.1c-4.64-2.74-8.32-6.45-11.04-11.15-2.72-4.7-4.07-9.87-4.07-15.5s1.36-10.66,4.07-15.38Zm8.47,26.16c1.85,3.26,4.36,5.86,7.54,7.79,3.18,1.94,6.67,2.9,10.47,2.9s7.17-.95,10.27-2.86c3.1-1.91,5.55-4.5,7.37-7.79,1.82-3.29,2.73-6.9,2.73-10.82s-.92-7.55-2.77-10.86c-1.85-3.32-4.35-5.94-7.5-7.88-3.15-1.93-6.6-2.9-10.35-2.9s-7.27.97-10.39,2.9c-3.12,1.94-5.6,4.56-7.41,7.88-1.82,3.32-2.73,6.94-2.73,10.86s.92,7.52,2.77,10.78Z"/>
    <path d="m173.69,564.14v8.76h-41.04l3.02-3.08c6.23-6.34,11.09-11.47,14.57-15.38,3.48-3.92,6.4-7.88,8.75-11.89,2.35-4.01,3.53-7.81,3.53-11.42,0-3.79-1.1-6.68-3.3-8.67-2.2-1.99-4.89-2.98-8.06-2.98-2.51,0-4.6.53-6.28,1.58-1.68,1.06-2.9,2.39-3.66,4.01-.76,1.62-1.15,3.23-1.15,4.85,0,3.98,1.19,7.24,3.57,9.79l-5.41,5.03c-2.02-1.24-3.65-3.34-4.9-6.29-1.25-2.95-1.88-5.73-1.88-8.34,0-3.42.84-6.6,2.52-9.56,1.68-2.95,4.11-5.31,7.28-7.08,3.17-1.77,6.96-2.66,11.36-2.66,3.72,0,7.04.89,9.94,2.66,2.9,1.77,5.15,4.15,6.73,7.13,1.59,2.98,2.38,6.25,2.38,9.79s-.82,7.08-2.47,10.63c-1.65,3.54-3.68,6.87-6.09,9.98-2.41,3.11-5.63,6.96-9.67,11.56l-1.37,1.58h21.62Z"/>
    <path d="m216.38,538.97c2.99,2.98,4.49,7.49,4.49,13.52,0,4.23-.95,7.94-2.84,11.14-1.89,3.2-4.47,5.67-7.74,7.41-3.27,1.74-6.86,2.61-10.77,2.61-2.87,0-5.77-.62-8.7-1.87-2.93-1.24-5.35-2.86-7.24-4.85l4.58-7.46c1.16,1.49,2.78,2.77,4.86,3.82,2.08,1.06,4.18,1.58,6.32,1.58,3.48,0,6.41-1.18,8.79-3.54,2.38-2.36,3.57-5.5,3.57-9.42,0-3.48-1.02-6.26-3.07-8.34-2.05-2.08-4.84-3.12-8.38-3.12-2.69,0-5.28.47-7.79,1.4l-.27-.37,13.47-21.26h-18.51v-8.67h31.61l-13.83,22.56c4.64.25,8.46,1.86,11.45,4.85Z"/>
  </g>
  <path d="m43.97,483.58l-9.85-36.15-11.48,36.32-16.65-63.43h9.57l8.16,35.32,6.3-23.3-3.26-12.02h8.1l9.28,33.91,7.03-33.91h8.78l-15.98,63.26Z"/>
  <path d="m746.67,138.55c14.99,14.44,22.49,36.26,22.49,65.45,0,20.47-4.75,38.44-14.23,53.94-9.49,15.5-22.42,27.46-38.79,35.88-16.38,8.43-34.36,12.64-53.94,12.64-14.39,0-28.92-3.01-43.61-9.03-14.69-6.02-26.78-13.84-36.27-23.47l22.95-36.11c5.81,7.22,13.92,13.39,24.33,18.5,10.4,5.12,20.96,7.67,31.67,7.67,17.44,0,32.13-5.71,44.07-17.15,11.94-11.43,17.9-26.63,17.9-45.59,0-16.85-5.13-30.31-15.38-40.4-10.26-10.08-24.26-15.12-42-15.12-13.47,0-26.47,2.26-39.02,6.77l-1.38-1.81,67.48-102.91h-92.73V5.85h158.37l-69.32,109.23c23.25,1.21,42.38,9.03,57.38,23.47Z"/>
  <g>
    <path class="cls-1" d="m173.44,275.14c-6.07.95-12.29,1.44-18.63,1.44-34.02,0-64.73-14.17-86.56-36.92-3.54,3.53-7.07,7.07-10.62,10.6-3.54,3.53-7.08,7.06-10.63,10.58,27.26,28.2,65.49,45.73,107.81,45.73,9.11,0,18.03-.81,26.69-2.37-2.71-9.68-5.4-19.37-8.06-29.06Z"/>
    <path d="m154.79,21.68c0-5,.02-10,.04-14.99,0,0,0,0-.01,0C72.23,6.68,5.24,73.46,4.88,155.96c5-.01,10-.02,14.99-.03,5,0,10,0,14.99-.01h0c2.42,0,4.84,0,7.26,0,2.56,0,5.13,0,7.69,0,.35-57.67,47.2-104.31,104.96-104.31,0-1.66,0-3.31,0-4.97,0-3.32,0-6.64,0-9.96h0c0-5,0-10,.02-14.99Z"/>
    <path d="m157.51,216.54c-.89.04-1.79.06-2.69.06-33.12,0-59.98-26.85-59.98-59.98,0-23.19,13.16-43.3,32.42-53.28-2.59-9.83-5.17-19.65-7.73-29.49-32.15,13.72-54.68,45.61-54.68,82.77,0,49.69,40.28,89.97,89.97,89.97,3.61,0,7.16-.22,10.65-.63-2.66-9.8-5.32-19.61-7.96-29.42Z"/>
    <path class="cls-1" d="m149.32,186.11c-13.94-2.58-24.49-14.8-24.49-29.48,0-9.12,4.08-17.29,10.51-22.79-1.37-5.17-2.75-10.33-4.12-15.5-12.83,7.92-21.39,22.1-21.39,38.29,0,24.4,19.42,44.26,43.65,44.96-1.39-5.16-2.77-10.32-4.16-15.48Z"/>
    <circle cx="154.81" cy="156.63" r="14.99"/>
    <path d="m332.04,6.8l-33.25,160.33L254.9,6.8h-38.31l15.43,56.84-29.79,110.15L163.65,6.8h-11.37c-4.36,4.94-8.77,9.84-13.17,14.74-4.32,4.81-8.66,9.6-13.03,14.36l23.96,91.24c1.57-.25,3.18-.39,4.83-.39,16.56,0,29.99,13.43,29.99,29.99,0,12.93-8.18,23.95-19.65,28.16l31.98,121.79,54.27-171.7,46.55,170.92L373.54,6.8h-41.5Z"/>
  </g>
</svg>