<?xml version="1.0" encoding="UTF-8"?>
<svg id="Layer_1" data-name="Layer 1" xmlns="http://www.w3.org/2000/svg" viewBox="0 0 1100 1100">
  <defs>
    <style>
      .cls-1, .cls-2 {
        fill: #fff;
      }

      .cls-2 {
        opacity: .5;
      }
    </style>
  </defs>
  <path class="cls-2" d="m890.45,185.91c-11.76,11.83-23.52,23.64-35.3,35.45-11.77,11.8-23.54,23.6-35.32,35.39,76.23,72.83,123.73,175.48,123.73,289.24,0,220.91-179.09,400-400,400-113.45,0-215.85-47.24-288.65-123.11-11.79,11.79-23.59,23.57-35.4,35.34-11.81,11.77-23.62,23.53-35.44,35.27,90.91,94.03,218.37,152.49,359.49,152.49,276.14,0,500-223.86,500-500,0-141.43-58.72-269.13-153.11-360.08Z"/>
  <path class="cls-1" d="m543.47,95.99c.03-16.67.07-33.33.13-50-.01,0-.03,0-.04,0-275.4,0-498.78,222.66-499.98,497.78,16.67-.04,33.33-.07,50-.09,16.67-.02,33.33-.03,50-.04h0c8.07,0,16.15,0,24.22-.01,8.55,0,17.1,0,25.65,0,1.16-192.3,157.4-347.84,349.98-347.84,0-5.53,0-11.05,0-16.58,0-11.07,0-22.14,0-33.22h0c0-16.67.02-33.33.05-50Z"/>
  <path class="cls-1" d="m783.86,291.53c-8.85,8.87-17.7,17.73-26.55,26.59-2.94,2.94-5.88,5.87-8.82,8.81-11.79,11.79-23.6,23.57-35.42,35.33,49.48,45.68,80.49,111.08,80.49,183.73,0,63.24-23.5,120.99-62.22,165.02,11.75,11.87,23.48,23.77,35.17,35.69h0c1.8,1.84,3.61,3.67,5.41,5.51,9.94,10.03,19.76,20.17,29.5,30.4,57.2-62.3,92.14-145.38,92.14-236.62,0-100.25-42.15-190.65-109.7-254.46Z"/>
  <path class="cls-1" d="m634.14,808.75c-3.26-8.71-6.51-17.42-9.76-26.13h0c-5.83-15.62-11.65-31.25-17.46-46.88-19.91,6.65-41.22,10.26-63.37,10.26-110.46,0-200-89.54-200-200,0-84.45,52.34-156.66,126.34-186-5.65-15.69-11.29-31.38-16.91-47.08-5.62-15.69-11.21-31.39-16.8-47.1-112.65,43.19-192.64,152.33-192.64,280.17,0,165.69,134.31,300,300,300,34.48,0,67.58-5.85,98.42-16.56-2.61-6.89-5.22-13.79-7.83-20.68Z"/>
  <path class="cls-2" d="m572.24,641.79c-9.09,2.72-18.71,4.2-28.69,4.2-55.23,0-100-44.77-100-100,0-41.11,24.82-76.41,60.28-91.78-5.68-15.7-11.32-31.41-16.97-47.13-54.74,22.36-93.31,76.12-93.31,138.9,0,82.84,67.16,150,150,150,16.04,0,31.49-2.53,45.99-7.2-5.78-15.66-11.55-31.33-17.3-47Z"/>
  <circle class="cls-1" cx="543.55" cy="545.99" r="50"/>
</svg>