<?xml version="1.0" encoding="UTF-8"?>
<svg id="Layer_1" data-name="Layer 1" xmlns="http://www.w3.org/2000/svg" viewBox="0 0 1732 315">
  <defs>
    <style>
      .cls-1 {
        opacity: .5;
      }
    </style>
  </defs>
  <path d="m568.31,263.74v42.32h-199.29l14.68-14.86c30.25-30.61,53.83-55.38,70.73-74.28,16.91-18.91,31.06-38.04,42.48-57.4,11.41-19.36,17.13-37.74,17.13-55.15,0-18.3-5.34-32.26-16.02-41.87-10.68-9.6-23.73-14.41-39.15-14.41-12.16,0-22.32,2.55-30.47,7.65-8.16,5.11-14.09,11.56-17.79,19.36-3.71,7.81-5.56,15.61-5.56,23.41,0,19.21,5.78,34.97,17.35,47.27l-26.25,24.31c-9.79-6-17.72-16.13-23.8-30.39-6.08-14.25-9.12-27.69-9.12-40.29,0-16.5,4.07-31.89,12.23-46.15,8.15-14.25,19.94-25.66,35.37-34.22,15.42-8.55,33.81-12.83,55.16-12.83,18.09,0,34.18,4.28,48.27,12.83,14.08,8.55,24.98,20.03,32.7,34.44,7.71,14.41,11.57,30.16,11.57,47.27s-4,34.22-12.01,51.32c-8.01,17.11-17.87,33.17-29.58,48.17-11.72,15.01-27.36,33.62-46.93,55.83l-6.67,7.65h104.99Z"/>
  <path d="m768.79,200.43v33.85h-39.48v71.77h-44.53v-71.77h-140.01v-.45L728.86,5.45h.46v194.99h39.48Zm-84.01,0v-92.53l-72.99,92.53h72.99Z"/>
  <g>
    <path d="m833.83,80.09c-3.75,1.42-7.85,2.13-12.29,2.13-7.5,0-14.05-1.67-19.65-5.01-5.61-3.34-9.92-7.83-12.94-13.47-3.02-5.64-4.53-11.83-4.53-18.58,0-7.36,1.51-13.94,4.53-19.75,3.02-5.81,7.23-10.34,12.64-13.62,5.41-3.27,11.56-4.91,18.46-4.91,4.25,0,8.18.57,11.79,1.72,3.62,1.15,6.82,2.6,9.6,4.36l-4.58,11.04c-5.37-3.85-10.85-5.77-16.42-5.77-4.25,0-8.21,1.17-11.89,3.49s-6.62,5.5-8.81,9.52c-2.19,4.02-3.28,8.42-3.28,13.22,0,5.06,1.01,9.6,3.04,13.62,2.02,4.02,4.91,7.16,8.66,9.42,3.75,2.26,8.08,3.39,12.99,3.39,3.52,0,6.68-.54,9.5-1.62,2.82-1.08,5.19-2.46,7.12-4.15l4.88,10.53c-2.12,1.55-5.06,3.04-8.81,4.46Z"/>
    <path d="m858.56,25.86c3.32-5.77,7.81-10.38,13.49-13.82s11.86-5.16,18.56-5.16,12.79,1.72,18.46,5.16c5.67,3.44,10.2,8.07,13.58,13.88,3.38,5.81,5.08,12.05,5.08,18.73s-1.68,13.1-5.03,18.84c-3.35,5.74-7.88,10.3-13.58,13.67-5.71,3.38-11.88,5.06-18.51,5.06s-12.89-1.67-18.56-5.01-10.17-7.88-13.49-13.62c-3.32-5.74-4.97-12.05-4.97-18.94s1.66-13.01,4.97-18.79Zm10.35,31.95c2.26,3.98,5.32,7.16,9.21,9.52s8.14,3.54,12.79,3.54,8.76-1.17,12.54-3.49c3.78-2.33,6.78-5.5,9.01-9.52,2.22-4.02,3.33-8.42,3.33-13.22s-1.13-9.21-3.38-13.27c-2.26-4.05-5.31-7.26-9.16-9.62-3.85-2.36-8.06-3.54-12.64-3.54s-8.87,1.18-12.69,3.54c-3.82,2.36-6.83,5.57-9.06,9.62-2.22,4.05-3.33,8.47-3.33,13.27s1.13,9.18,3.38,13.17Z"/>
    <path d="m954.79,7.68v62.38h35.73v11.34h-47.37V7.68h11.64Z"/>
    <path d="m1017.49,7.68v62.38h35.73v11.34h-47.37V7.68h11.64Z"/>
    <path d="m1105.76,64.09h-26.37l-6.97,17.32h-11.44l32.04-76.76h.7l32.04,76.76h-13.33l-6.67-17.32Zm-3.88-10.13l-9.06-23.29-9.35,23.29h18.41Z"/>
    <path d="m1181.94,49.91c2.29,2.97,3.43,6.42,3.43,10.33,0,7.16-2.37,12.47-7.12,15.95-4.74,3.48-10.6,5.21-17.56,5.21h-22.59V7.68h19.8c7.56,0,13.43,1.57,17.61,4.71,4.18,3.14,6.27,7.75,6.27,13.82,0,3.85-.81,7.18-2.44,9.98-1.63,2.8-3.93,5.05-6.92,6.73,4.05,1.69,7.21,4.02,9.5,6.99Zm-32.19-10.84h10.05c3.32,0,5.82-.98,7.51-2.94,1.69-1.96,2.54-4.42,2.54-7.39,0-3.24-1.01-5.67-3.04-7.29-2.02-1.62-4.83-2.43-8.41-2.43h-8.66v20.05Zm20,28.81c2.45-1.72,3.68-4.24,3.68-7.54,0-3.51-1.34-6.04-4.03-7.6-2.69-1.55-6.02-2.33-10-2.33h-9.65v20.05h10.45c3.91,0,7.1-.86,9.55-2.58Z"/>
    <path d="m1201.29,25.86c3.32-5.77,7.81-10.38,13.48-13.82,5.67-3.44,11.86-5.16,18.56-5.16s12.79,1.72,18.46,5.16,10.2,8.07,13.58,13.88,5.08,12.05,5.08,18.73-1.68,13.1-5.03,18.84c-3.35,5.74-7.88,10.3-13.58,13.67-5.71,3.38-11.88,5.06-18.51,5.06s-12.89-1.67-18.56-5.01c-5.67-3.34-10.17-7.88-13.48-13.62-3.32-5.74-4.98-12.05-4.98-18.94s1.66-13.01,4.98-18.79Zm10.35,31.95c2.25,3.98,5.32,7.16,9.21,9.52,3.88,2.36,8.14,3.54,12.79,3.54s8.76-1.17,12.54-3.49c3.78-2.33,6.78-5.5,9.01-9.52,2.22-4.02,3.33-8.42,3.33-13.22s-1.13-9.21-3.38-13.27c-2.26-4.05-5.31-7.26-9.16-9.62-3.85-2.36-8.06-3.54-12.64-3.54s-8.87,1.18-12.69,3.54c-3.82,2.36-6.83,5.57-9.06,9.62-2.22,4.05-3.33,8.47-3.33,13.27s1.13,9.18,3.38,13.17Z"/>
    <path d="m1325.49,81.4l-16.32-25.62h-11.64v25.62h-11.64V7.68h20.4c8.09,0,14.58,2.09,19.46,6.28,4.88,4.19,7.31,9.99,7.31,17.42,0,4.52-.95,8.73-2.84,12.61-1.89,3.88-4.86,6.87-8.91,8.96l17.61,28.46h-13.43Zm-27.96-36.96h10.35c4.64,0,8.01-1.3,10.1-3.9,2.09-2.6,3.13-5.52,3.13-8.76,0-1.89-.4-3.8-1.19-5.72-.8-1.92-2.16-3.58-4.08-4.96-1.92-1.38-4.45-2.08-7.56-2.08h-10.75v25.42Z"/>
    <path d="m1389.78,64.09h-26.37l-6.97,17.32h-11.44l32.04-76.76h.7l32.04,76.76h-13.33l-6.67-17.32Zm-3.88-10.13l-9.06-23.29-9.35,23.29h18.41Z"/>
    <path d="m1459.64,7.68v11.34h-18.71v62.38h-11.54V19.02h-18.21V7.68h48.46Z"/>
    <path d="m1486.01,7.68v73.72h-11.64V7.68h11.64Z"/>
    <path d="m1506.41,25.86c3.32-5.77,7.81-10.38,13.48-13.82,5.67-3.44,11.86-5.16,18.56-5.16s12.79,1.72,18.46,5.16,10.2,8.07,13.58,13.88,5.08,12.05,5.08,18.73-1.68,13.1-5.03,18.84c-3.35,5.74-7.88,10.3-13.58,13.67-5.71,3.38-11.88,5.06-18.51,5.06s-12.89-1.67-18.56-5.01c-5.67-3.34-10.17-7.88-13.48-13.62-3.32-5.74-4.98-12.05-4.98-18.94s1.66-13.01,4.98-18.79Zm10.35,31.95c2.25,3.98,5.32,7.16,9.21,9.52,3.88,2.36,8.14,3.54,12.79,3.54s8.76-1.17,12.54-3.49c3.78-2.33,6.78-5.5,9.01-9.52,2.22-4.02,3.33-8.42,3.33-13.22s-1.13-9.21-3.38-13.27c-2.26-4.05-5.31-7.26-9.16-9.62-3.85-2.36-8.06-3.54-12.64-3.54s-8.87,1.18-12.69,3.54c-3.82,2.36-6.83,5.57-9.06,9.62-2.22,4.05-3.33,8.47-3.33,13.27s1.13,9.18,3.38,13.17Z"/>
    <path d="m1654.99,7.68v76.36h-.3l-52.25-51.55.3,48.91h-11.74V5.15h.6l52.05,52.16-.2-49.62h11.54Z"/>
    <path d="m1696.39,17.71c-3.58,0-6.42.81-8.51,2.43-2.09,1.62-3.13,3.85-3.13,6.68s1.31,5.08,3.93,6.94c2.62,1.86,6.29,3.7,11,5.52,3.58,1.28,6.65,2.75,9.21,4.41,2.55,1.66,4.66,3.9,6.32,6.74,1.66,2.83,2.49,6.41,2.49,10.73,0,3.92-.96,7.46-2.89,10.63-1.93,3.17-4.71,5.71-8.36,7.6-3.65,1.89-7.96,2.84-12.94,2.84-4.38,0-8.69-.69-12.94-2.08-4.25-1.38-8.03-3.29-11.34-5.72l5.17-9.21c2.45,1.89,5.36,3.46,8.71,4.71,3.35,1.25,6.45,1.87,9.3,1.87,3.52,0,6.6-.86,9.25-2.58,2.65-1.72,3.98-4.37,3.98-7.95,0-2.84-1.11-5.2-3.33-7.09-2.22-1.89-5.32-3.61-9.31-5.16-4.11-1.55-7.53-3.09-10.25-4.61-2.72-1.52-5.06-3.65-7.02-6.38-1.96-2.73-2.94-6.16-2.94-10.28,0-6.01,2.01-10.85,6.02-14.53,4.01-3.68,9.3-5.65,15.87-5.92,4.78,0,8.97.56,12.59,1.67,3.62,1.11,6.98,2.68,10.1,4.71l-4.38,9.01c-6.24-3.31-11.78-4.96-16.62-4.96Z"/>
  </g>
  <path d="m568.5,264.53v42.32h-199.29l14.68-14.86c30.25-30.61,53.83-55.38,70.73-74.28,16.91-18.91,31.06-38.04,42.48-57.4,11.41-19.36,17.13-37.74,17.13-55.15,0-18.3-5.34-32.26-16.02-41.87-10.68-9.6-23.73-14.41-39.15-14.41-12.16,0-22.32,2.55-30.47,7.65-8.16,5.11-14.09,11.56-17.79,19.36-3.71,7.81-5.56,15.61-5.56,23.41,0,19.21,5.78,34.97,17.35,47.27l-26.25,24.31c-9.79-6-17.72-16.13-23.8-30.39-6.08-14.25-9.12-27.69-9.12-40.29,0-16.5,4.07-31.89,12.23-46.15,8.15-14.25,19.94-25.66,35.37-34.21,15.42-8.55,33.81-12.83,55.16-12.83,18.09,0,34.18,4.28,48.27,12.83,14.08,8.55,24.98,20.03,32.7,34.44,7.71,14.41,11.57,30.16,11.57,47.27s-4,34.22-12.01,51.32c-8.01,17.11-17.87,33.17-29.58,48.17-11.72,15.01-27.36,33.62-46.93,55.83l-6.67,7.65h104.98Z"/>
  <g>
    <path d="m858.49,137.68c3.32-5.77,7.81-10.38,13.49-13.82,5.67-3.44,11.86-5.16,18.56-5.16s12.79,1.72,18.46,5.16,10.2,8.07,13.58,13.88c3.38,5.81,5.08,12.05,5.08,18.73s-1.68,13.1-5.03,18.84c-3.35,5.74-7.88,10.3-13.58,13.67-5.71,3.38-11.88,5.06-18.51,5.06s-12.89-1.67-18.56-5.01c-5.67-3.34-10.17-7.88-13.49-13.62-3.32-5.74-4.98-12.05-4.98-18.94s1.66-13.01,4.98-18.79Zm10.35,31.95c2.25,3.98,5.32,7.16,9.21,9.52,3.88,2.36,8.14,3.54,12.79,3.54s8.76-1.17,12.54-3.49c3.78-2.33,6.78-5.5,9.01-9.52,2.22-4.02,3.33-8.42,3.33-13.22s-1.13-9.21-3.38-13.27c-2.26-4.05-5.31-7.26-9.16-9.62s-8.06-3.54-12.64-3.54-8.87,1.18-12.69,3.54c-3.82,2.36-6.83,5.57-9.06,9.62s-3.33,8.47-3.33,13.27,1.13,9.18,3.38,13.17Z"/>
    <path d="m982.69,193.22l-16.32-25.62h-11.64v25.62h-11.64v-73.72h20.4c8.09,0,14.58,2.09,19.46,6.28,4.88,4.19,7.32,9.99,7.32,17.42,0,4.52-.95,8.73-2.84,12.61-1.89,3.88-4.86,6.87-8.91,8.96l17.62,28.46h-13.44Zm-27.96-36.96h10.35c4.64,0,8.01-1.3,10.1-3.9,2.09-2.6,3.13-5.52,3.13-8.76,0-1.89-.4-3.8-1.19-5.72-.8-1.92-2.16-3.58-4.08-4.96-1.93-1.38-4.45-2.08-7.56-2.08h-10.75v25.42Z"/>
    <path d="m1021.2,151.5l1.59-2.33,27.27-29.67h14.93l-29.95,32.2,31.05,41.52h-14.73l-24.78-34.03-5.08,5.06v28.96h-11.74v-73.72h11.74v28.25l-.3,3.75Z"/>
    <path d="m1099.72,129.52c-3.58,0-6.42.81-8.51,2.43-2.09,1.62-3.13,3.85-3.13,6.68s1.31,5.08,3.93,6.94c2.62,1.86,6.29,3.7,11,5.52,3.58,1.28,6.65,2.75,9.21,4.41,2.55,1.66,4.66,3.9,6.32,6.74,1.66,2.83,2.49,6.41,2.49,10.73,0,3.92-.96,7.46-2.89,10.63-1.93,3.17-4.71,5.71-8.36,7.6-3.65,1.89-7.96,2.84-12.94,2.84-4.38,0-8.69-.69-12.94-2.08-4.25-1.38-8.03-3.29-11.34-5.72l5.17-9.22c2.45,1.89,5.36,3.46,8.71,4.71,3.35,1.25,6.45,1.87,9.3,1.87,3.52,0,6.6-.86,9.25-2.58,2.65-1.72,3.98-4.37,3.98-7.95,0-2.84-1.11-5.2-3.33-7.09-2.22-1.89-5.32-3.61-9.31-5.16-4.11-1.55-7.53-3.09-10.25-4.61-2.72-1.52-5.06-3.65-7.02-6.38-1.96-2.73-2.94-6.16-2.94-10.28,0-6.01,2.01-10.85,6.02-14.53,4.01-3.68,9.3-5.65,15.87-5.92,4.78,0,8.97.56,12.59,1.67,3.62,1.11,6.98,2.68,10.1,4.71l-4.38,9.01c-6.24-3.31-11.78-4.96-16.62-4.96Z"/>
    <path d="m1195.16,193.22h-11.64v-31.39h-35.63v31.39h-11.64v-73.72h11.64v31.09h35.63v-31.09h11.64v73.72Z"/>
    <path d="m1215.55,137.68c3.32-5.77,7.81-10.38,13.48-13.82,5.67-3.44,11.86-5.16,18.56-5.16s12.79,1.72,18.46,5.16,10.2,8.07,13.58,13.88,5.08,12.05,5.08,18.73-1.68,13.1-5.03,18.84c-3.35,5.74-7.88,10.3-13.58,13.67-5.71,3.38-11.88,5.06-18.51,5.06s-12.89-1.67-18.56-5.01c-5.67-3.34-10.17-7.88-13.48-13.62-3.32-5.74-4.98-12.05-4.98-18.94s1.66-13.01,4.98-18.79Zm10.35,31.95c2.25,3.98,5.32,7.16,9.21,9.52,3.88,2.36,8.14,3.54,12.79,3.54s8.76-1.17,12.54-3.49c3.78-2.33,6.78-5.5,9.01-9.52,2.22-4.02,3.33-8.42,3.33-13.22s-1.13-9.21-3.38-13.27c-2.26-4.05-5.31-7.26-9.16-9.62-3.85-2.36-8.06-3.54-12.64-3.54s-8.87,1.18-12.69,3.54c-3.82,2.36-6.83,5.57-9.06,9.62-2.22,4.05-3.33,8.47-3.33,13.27s1.13,9.18,3.38,13.17Z"/>
    <path d="m1339.95,125.78c4.64,4.19,6.97,9.99,6.97,17.42,0,4.25-.83,8.22-2.49,11.9-1.66,3.68-4.33,6.68-8.01,9.01-3.68,2.33-8.41,3.49-14.18,3.49h-10.45v25.62h-11.64v-73.72h20.5c8.23,0,14.66,2.09,19.31,6.28Zm-10,28.41c1.96-1.38,3.35-3.07,4.18-5.06.83-1.99,1.24-3.9,1.24-5.72,0-3.1-.98-5.98-2.94-8.61-1.96-2.63-5.26-3.95-9.9-3.95h-10.75v25.42h10.45c3.18,0,5.75-.69,7.71-2.08Z"/>
  </g>
  <g>
    <path d="m843.87,296.1v10.7h-50.13l3.69-3.76c7.61-7.74,13.54-14.01,17.79-18.79,4.25-4.78,7.81-9.62,10.69-14.52,2.87-4.9,4.31-9.55,4.31-13.95,0-4.63-1.34-8.16-4.03-10.59-2.69-2.43-5.97-3.64-9.85-3.64-3.06,0-5.61.65-7.66,1.94-2.05,1.29-3.54,2.92-4.48,4.9-.93,1.97-1.4,3.95-1.4,5.92,0,4.86,1.46,8.84,4.36,11.96l-6.6,6.15c-2.46-1.52-4.46-4.08-5.99-7.69-1.53-3.6-2.29-7-2.29-10.19,0-4.17,1.02-8.06,3.08-11.67,2.05-3.61,5.02-6.49,8.9-8.65,3.88-2.16,8.5-3.25,13.88-3.25,4.55,0,8.6,1.08,12.14,3.25,3.54,2.16,6.28,5.07,8.22,8.71,1.94,3.64,2.91,7.63,2.91,11.96s-1.01,8.65-3.02,12.98-4.5,8.39-7.44,12.18c-2.95,3.8-6.88,8.5-11.81,14.12l-1.68,1.94h26.41Z"/>
    <path d="m859.02,251.26c3.32-5.77,7.81-10.38,13.48-13.82,5.67-3.44,11.86-5.16,18.56-5.16s12.79,1.72,18.46,5.16c5.67,3.44,10.2,8.07,13.58,13.88,3.38,5.81,5.08,12.05,5.08,18.73s-1.68,13.1-5.03,18.84c-3.35,5.74-7.88,10.3-13.58,13.67-5.71,3.38-11.88,5.06-18.51,5.06s-12.89-1.67-18.56-5.01c-5.67-3.34-10.17-7.88-13.48-13.62-3.32-5.74-4.98-12.05-4.98-18.94s1.66-13.01,4.98-18.79Zm10.35,31.95c2.25,3.98,5.32,7.16,9.21,9.52,3.88,2.36,8.14,3.54,12.79,3.54s8.76-1.17,12.54-3.49c3.78-2.33,6.78-5.5,9.01-9.52,2.22-4.02,3.33-8.42,3.33-13.22s-1.13-9.22-3.38-13.27c-2.26-4.05-5.31-7.26-9.16-9.62-3.85-2.36-8.06-3.54-12.64-3.54s-8.88,1.18-12.69,3.54c-3.82,2.36-6.83,5.57-9.05,9.62-2.22,4.05-3.33,8.47-3.33,13.27s1.13,9.18,3.38,13.17Z"/>
    <path d="m991.02,296.1v10.7h-50.13l3.69-3.76c7.61-7.74,13.54-14.01,17.79-18.79,4.25-4.78,7.81-9.62,10.69-14.52,2.87-4.9,4.31-9.55,4.31-13.95,0-4.63-1.34-8.16-4.03-10.59-2.69-2.43-5.97-3.64-9.85-3.64-3.06,0-5.61.65-7.66,1.94-2.05,1.29-3.54,2.92-4.48,4.9-.93,1.97-1.4,3.95-1.4,5.92,0,4.86,1.46,8.84,4.36,11.96l-6.6,6.15c-2.46-1.52-4.46-4.08-5.99-7.69-1.53-3.6-2.29-7-2.29-10.19,0-4.17,1.02-8.06,3.08-11.67,2.05-3.61,5.02-6.49,8.9-8.65,3.88-2.16,8.5-3.25,13.88-3.25,4.55,0,8.6,1.08,12.14,3.25,3.54,2.16,6.28,5.07,8.22,8.71,1.94,3.64,2.91,7.63,2.91,11.96s-1.01,8.65-3.02,12.98c-2.01,4.33-4.5,8.39-7.44,12.18-2.95,3.8-6.88,8.5-11.8,14.12l-1.68,1.94h26.41Z"/>
    <path d="m1052.34,280.16v8.54h-9.62v18.11h-10.85v-18.11h-34.13v-.11l44.87-57.62h.11v49.19h9.62Zm-20.48,0v-23.34l-17.79,23.34h17.79Z"/>
  </g>
  <path d="m832.59,197.71l-12.03-44.15-14.02,44.36-20.34-77.47h11.68l9.96,43.14,7.7-28.46-3.99-14.68h9.9l11.34,41.42,8.59-41.42h10.72l-19.52,77.27Z"/>
  <g>
    <path class="cls-1" d="m173.44,275.14c-6.07.95-12.29,1.44-18.63,1.44-34.02,0-64.73-14.17-86.56-36.92-3.54,3.53-7.07,7.07-10.62,10.6-3.54,3.53-7.08,7.06-10.63,10.58,27.26,28.2,65.49,45.73,107.81,45.73,9.11,0,18.03-.81,26.69-2.37-2.71-9.68-5.4-19.37-8.06-29.06Z"/>
    <path d="m154.79,21.68c0-5,.02-10,.04-14.99,0,0,0,0-.01,0C72.23,6.68,5.24,73.46,4.88,155.96c5-.01,10-.02,14.99-.03,5,0,10,0,14.99-.01h0c2.42,0,4.84,0,7.26,0,2.56,0,5.13,0,7.69,0,.35-57.67,47.2-104.31,104.96-104.31,0-1.66,0-3.31,0-4.97,0-3.32,0-6.64,0-9.96h0c0-5,0-10,.02-14.99Z"/>
    <path d="m157.51,216.54c-.89.04-1.79.06-2.69.06-33.12,0-59.98-26.85-59.98-59.98,0-23.19,13.16-43.3,32.42-53.28-2.59-9.83-5.17-19.65-7.73-29.49-32.15,13.72-54.68,45.61-54.68,82.77,0,49.69,40.28,89.97,89.97,89.97,3.61,0,7.16-.22,10.65-.63-2.66-9.8-5.32-19.61-7.96-29.42Z"/>
    <path class="cls-1" d="m149.32,186.11c-13.94-2.58-24.49-14.8-24.49-29.48,0-9.12,4.08-17.29,10.51-22.79-1.37-5.17-2.75-10.33-4.12-15.5-12.83,7.92-21.39,22.1-21.39,38.29,0,24.4,19.42,44.26,43.65,44.96-1.39-5.16-2.77-10.32-4.16-15.48Z"/>
    <circle cx="154.81" cy="156.63" r="14.99"/>
    <path d="m332.04,6.8l-33.25,160.33L254.9,6.8h-38.31l15.43,56.84-29.79,110.15L163.65,6.8h-11.37c-4.36,4.94-8.77,9.84-13.17,14.74-4.32,4.81-8.66,9.6-13.03,14.36l23.96,91.24c1.57-.25,3.18-.39,4.83-.39,16.56,0,29.99,13.43,29.99,29.99,0,12.93-8.18,23.95-19.65,28.16l31.98,121.79,54.27-171.7,46.55,170.92L373.54,6.8h-41.5Z"/>
  </g>
</svg>