<?xml version="1.0" encoding="UTF-8"?>
<svg id="Layer_1" data-name="Layer 1" xmlns="http://www.w3.org/2000/svg" viewBox="0 0 2992 758">
  <defs>
    <style>
      .cls-1, .cls-2 {
        fill: #fff;
      }

      .cls-2 {
        opacity: .5;
      }
    </style>
  </defs>
  <path class="cls-1" d="m913.37,436.99c-16.56-26.79-37.34-47.78-62.33-62.96-25-15.17-55.68-29.21-92.03-42.13-48.69-18.07-86.19-36.32-112.48-54.73s-39.44-42.14-39.44-71.19,11.2-53.11,33.6-70.22c22.4-17.1,52.74-25.67,91.06-25.67,25.32,0,52.25,4.21,80.83,12.59,28.56,8.4,55.51,19.37,80.83,32.93l36.03-72.65c-64.93-37.44-135.37-56.18-211.33-56.18-61.69,1.94-111.84,19.86-150.46,53.76-38.64,33.9-57.95,78.31-57.95,133.19,0,37.46,9.4,68.62,28.24,93.47,18.82,24.87,41.39,44.41,67.68,58.6,26.29,14.21,59.24,28.74,98.85,43.59,42.85,16.8,76.12,34.72,99.82,53.76,23.69,19.05,35.55,44.72,35.55,77,0,38.11-14.12,66.83-42.36,86.21-28.24,19.37-61.2,29.06-98.85,29.06-27.91,0-57.91-5.77-89.96-17.26-10.38,13.96-20.85,27.87-31.31,41.77-7.11,9.44-14.22,18.87-21.37,28.28,8.36,3.41,16.94,6.64,25.77,9.69,40.25,13.88,82.12,20.83,125.63,20.83,46.75,0,87.48-8.72,122.22-26.15,34.72-17.44,61.51-41.32,80.34-71.68,18.82-30.34,28.24-64.25,28.24-101.71,0-41.32-8.28-75.39-24.83-102.19Z"/>
  <path class="cls-2" d="m1371.95,647.92c-31.15,11.74-64.9,18.17-100.16,18.17-80.55,0-153.26-33.54-204.94-87.41-8.37,8.37-16.75,16.73-25.13,25.09-8.38,8.35-16.77,16.7-25.17,25.04,64.55,66.76,155.05,108.27,255.24,108.27,43.99,0,86.11-8.01,124.98-22.63-8.35-22.15-16.61-44.34-24.83-66.54Z"/>
  <path class="cls-1" d="m1271.73,62.59c.02-11.83.05-23.67.09-35.5-.01,0-.02,0-.03,0-195.54,0-354.14,158.09-354.99,353.42,11.83-.03,23.67-.05,35.5-.06,11.83-.01,23.67-.02,35.5-.03h0c5.73,0,11.47,0,17.2,0,6.07,0,12.14,0,18.22,0,.83-136.54,111.76-246.97,248.49-246.97,0-3.92,0-7.85,0-11.77,0-7.86,0-15.72,0-23.58h0c0-11.83.02-23.67.04-35.5Z"/>
  <path class="cls-1" d="m1336.11,568.65c-2.32-6.18-4.62-12.37-6.93-18.55h0c-4.14-11.09-8.27-22.19-12.39-33.29-14.14,4.72-29.26,7.28-44.99,7.28-78.43,0-142-63.58-142-142,0-59.96,37.16-111.23,89.71-132.06-4.01-11.14-8.02-22.28-12.01-33.43-3.99-11.14-7.96-22.29-11.93-33.44-79.98,30.67-136.77,108.15-136.77,198.92,0,117.64,95.36,213,213,213,24.48,0,47.99-4.15,69.88-11.76-1.85-4.89-3.71-9.79-5.56-14.68Z"/>
  <path class="cls-2" d="m1292.16,450.11c-6.45,1.93-13.29,2.98-20.37,2.98-39.21,0-71-31.79-71-71,0-29.19,17.62-54.25,42.8-65.16-4.03-11.15-8.04-22.3-12.05-33.46-38.86,15.88-66.25,54.05-66.25,98.62,0,58.82,47.68,106.5,106.5,106.5,11.39,0,22.36-1.8,32.65-5.11-4.1-11.12-8.2-22.24-12.28-33.37Z"/>
  <circle class="cls-1" cx="1271.79" cy="382.09" r="35.5"/>
  <path class="cls-1" d="m577.21,634.35c-50.99-2.46-118.18-42.53-172.82-108.16-30.79-36.98-52.84-76.37-64.98-112.74-9.04,6.4-18.99,10.62-29.86,12.64-9.97,3.64-20.24,5.12-30.81,4.45,19.23,43.39,47.07,88.37,82.73,131.2,72.71,87.33,160.23,144.48,232.46,158.86-10.32-27.91-17.39-56.99-16.71-86.25Z"/>
  <path class="cls-1" d="m610.86,638.65c-29.91-8.42-69.8-31.84-113.85-68.99-65.01-54.83-122.06-125.22-151.76-183.06-3.5,19.9-7.06,39.75-10.78,59.41.18-.95-.01.28-.41,2.62,44.89,60.39,102.12,122.21,164.2,174.56,32.16,27.13,62.86,49.38,91.06,66.53,13.67-15.02,27.49-29.93,41.31-44.84-6.88-1.42-13.47-3.49-19.77-6.23Z"/>
  <path class="cls-1" d="m414.49,85.18c44.59,38.88,66.89,93.22,66.89,163.05,0,40.19-8.22,77.75-24.66,112.66-16.44,34.92-42.92,63.25-79.47,84.98-36.55,21.75-82.64,32.61-138.3,32.61h-107.62v262.86H33.75V26.87h195.14c79.12,0,141,19.44,185.59,58.31Zm-90.53,278.67c21.78-14.5,37.38-32.12,46.77-52.88s14.09-41.02,14.09-60.78c0-34.25-11.41-64.72-34.2-91.41-22.81-26.67-58.34-40.02-106.62-40.02h-112.66v266.81h107.62c34.88,0,63.2-7.23,85-21.73Z"/>
  <path class="cls-1" d="m870.72,143.84c22.48,10.99,43.56,23.6,63.2,37.86l45.9-65.34c-25.48-19.73-52.47-36.21-80.96-49.46-.71,2.13-1.47,4.24-2.28,6.34-1.73,4.82-3.45,9.63-5.18,14.45-6.76,18.76-13.71,37.46-20.67,56.15Z"/>
  <g>
    <path class="cls-1" d="m1538.7,236.14l-46.41-72.86h-33.11v72.86h-33.11V26.48h58.02c23.02,0,41.46,5.95,55.33,17.85,13.87,11.91,20.8,28.42,20.8,49.53,0,12.86-2.69,24.82-8.07,35.85-5.38,11.04-13.82,19.54-25.33,25.49l50.09,80.92h-38.21Zm-79.52-105.12h29.43c13.2,0,22.78-3.69,28.72-11.09,5.94-7.39,8.91-15.7,8.91-24.91,0-5.37-1.13-10.8-3.4-16.27-2.26-5.47-6.13-10.17-11.6-14.11-5.47-3.93-12.64-5.9-21.51-5.9h-30.56v72.29Z"/>
    <path class="cls-1" d="m1752.36,26.48v32.25h-103.58v55.87h92.26v32.25h-92.26v57.02h107.54v32.25h-140.65V26.48h136.69Z"/>
    <path class="cls-1" d="m1862.73,54.99c-10.19,0-18.25,2.3-24.2,6.91-5.94,4.61-8.91,10.94-8.91,19.01s3.72,14.45,11.18,19.73c7.45,5.28,17.87,10.51,31.27,15.7,10.19,3.65,18.91,7.83,26.18,12.53,7.26,4.71,13.25,11.09,17.97,19.15,4.71,8.06,7.08,18.24,7.08,30.53,0,11.14-2.74,21.22-8.21,30.24-5.47,9.03-13.4,16.23-23.77,21.6-10.38,5.38-22.64,8.06-36.79,8.06-12.45,0-24.72-1.97-36.79-5.9-12.08-3.93-22.83-9.36-32.26-16.27l14.72-26.21c6.98,5.38,15.23,9.84,24.76,13.39,9.52,3.55,18.35,5.33,26.46,5.33,10,0,18.77-2.45,26.32-7.34,7.54-4.9,11.32-12.43,11.32-22.61,0-8.06-3.16-14.78-9.48-20.16-6.32-5.37-15.14-10.27-26.46-14.69-11.7-4.41-21.42-8.78-29.15-13.1-7.74-4.32-14.39-10.37-19.95-18.14-5.57-7.78-8.35-17.52-8.35-29.23,0-17.09,5.7-30.86,17.12-41.33,11.41-10.46,26.46-16.08,45.14-16.85,13.58,0,25.51,1.58,35.8,4.75,10.28,3.17,19.85,7.63,28.72,13.39l-12.45,25.63c-17.74-9.4-33.49-14.11-47.26-14.11Z"/>
    <path class="cls-1" d="m2103.27,26.48v32.25h-103.58v55.87h92.26v32.25h-92.26v57.02h107.54v32.25h-140.65V26.48h136.69Z"/>
    <path class="cls-1" d="m2258.64,186.89h-75l-19.81,49.25h-32.54l91.13-218.29h1.98l91.13,218.29h-37.92l-18.96-49.25Zm-11.04-28.8l-25.75-66.24-26.6,66.24h52.35Z"/>
    <path class="cls-1" d="m2463.24,236.14l-46.41-72.86h-33.11v72.86h-33.11V26.48h58.01c23.02,0,41.46,5.95,55.33,17.85,13.87,11.91,20.8,28.42,20.8,49.53,0,12.86-2.69,24.82-8.07,35.85-5.38,11.04-13.82,19.54-25.33,25.49l50.09,80.92h-38.21Zm-79.52-105.12h29.43c13.2,0,22.78-3.69,28.72-11.09,5.94-7.39,8.91-15.7,8.91-24.91,0-5.37-1.13-10.8-3.4-16.27-2.26-5.47-6.13-10.17-11.6-14.11-5.47-3.93-12.64-5.9-21.51-5.9h-30.56v72.29Z"/>
    <path class="cls-1" d="m2662.33,232.39c-10.66,4.03-22.31,6.05-34.95,6.05-21.32,0-39.95-4.75-55.89-14.26-15.95-9.5-28.21-22.27-36.79-38.3-8.59-16.03-12.88-33.65-12.88-52.85,0-20.92,4.29-39.64,12.88-56.16,8.58-16.51,20.56-29.42,35.94-38.73,15.37-9.31,32.87-13.97,52.5-13.97,12.07,0,23.25,1.63,33.54,4.9,10.28,3.27,19.39,7.39,27.31,12.38l-13.02,31.39c-15.28-10.94-30.85-16.42-46.7-16.42-12.08,0-23.35,3.31-33.82,9.94s-18.82,15.65-25.05,27.07c-6.23,11.42-9.34,23.95-9.34,37.58,0,14.4,2.87,27.31,8.63,38.73,5.75,11.42,13.96,20.35,24.62,26.78,10.66,6.43,22.97,9.65,36.93,9.65,10,0,19-1.53,27.03-4.61,8.02-3.07,14.76-7.01,20.23-11.81l13.87,29.95c-6.04,4.42-14.39,8.64-25.05,12.67Z"/>
    <path class="cls-1" d="m2898.78,236.14h-33.11v-89.28h-101.31v89.28h-33.11V26.48h33.11v88.41h101.31V26.48h33.11v209.65Z"/>
  </g>
  <g>
    <path class="cls-1" d="m1503.33,305.06c-10.19,0-18.25,2.3-24.2,6.91-5.94,4.61-8.91,10.94-8.91,19.01s3.72,14.45,11.18,19.73c7.45,5.28,17.87,10.51,31.27,15.7,10.19,3.65,18.91,7.83,26.18,12.53,7.26,4.71,13.25,11.09,17.97,19.15,4.71,8.06,7.07,18.24,7.07,30.53,0,11.14-2.74,21.22-8.21,30.24-5.47,9.03-13.4,16.23-23.77,21.6-10.38,5.38-22.64,8.06-36.79,8.06-12.45,0-24.72-1.97-36.79-5.9-12.08-3.93-22.83-9.36-32.26-16.27l14.72-26.21c6.98,5.38,15.23,9.84,24.76,13.39,9.52,3.55,18.35,5.33,26.46,5.33,10,0,18.77-2.45,26.32-7.34,7.54-4.9,11.32-12.43,11.32-22.61,0-8.06-3.16-14.78-9.48-20.16-6.32-5.37-15.14-10.27-26.46-14.69-11.7-4.41-21.42-8.78-29.15-13.1-7.74-4.32-14.39-10.37-19.95-18.14-5.57-7.78-8.35-17.52-8.35-29.23,0-17.09,5.7-30.86,17.12-41.33,11.41-10.46,26.46-16.08,45.14-16.85,13.58,0,25.51,1.58,35.8,4.75,10.28,3.17,19.85,7.63,28.72,13.39l-12.45,25.63c-17.74-9.4-33.49-14.11-47.26-14.11Z"/>
    <path class="cls-1" d="m1608.61,328.25c9.43-16.42,22.22-29.52,38.35-39.31,16.13-9.79,33.72-14.69,52.78-14.69s36.37,4.9,52.5,14.69,29.01,22.94,38.63,39.45c9.62,16.51,14.43,34.27,14.43,53.28s-4.77,37.25-14.29,53.57c-9.53,16.32-22.41,29.28-38.63,38.88-16.23,9.6-33.77,14.4-52.64,14.4s-36.65-4.75-52.78-14.25c-16.13-9.5-28.92-22.41-38.35-38.73-9.44-16.32-14.15-34.27-14.15-53.85s4.71-37.01,14.15-53.42Zm29.43,90.86c6.41,11.33,15.14,20.35,26.18,27.07,11.04,6.72,23.16,10.08,36.37,10.08s24.9-3.31,35.66-9.94,19.29-15.65,25.61-27.07c6.32-11.42,9.48-23.95,9.48-37.58s-3.21-26.21-9.62-37.73c-6.42-11.52-15.1-20.64-26.04-27.36-10.94-6.72-22.92-10.08-35.94-10.08s-25.24,3.36-36.08,10.08c-10.85,6.72-19.43,15.84-25.75,27.36-6.32,11.52-9.48,24.1-9.48,37.73s3.21,26.11,9.62,37.44Z"/>
    <path class="cls-1" d="m1974.24,276.55v32.25h-91.97v59.04h80.09v31.97h-80.09v86.4h-33.11v-209.65h125.09Z"/>
    <path class="cls-1" d="m2140.07,276.55v32.25h-53.2v177.4h-32.83v-177.4h-51.79v-32.25h137.82Z"/>
    <path class="cls-1" d="m2349.77,495.42l-48.68-124.99-54.62,125.56-82.35-218.29h38.49l48.11,139.96,34.24-89.28-19.81-50.69h32.54l52.92,135.93,44.15-135.93h35.38l-80.37,217.72Z"/>
    <path class="cls-1" d="m2547.88,436.96h-75l-19.81,49.25h-32.54l91.13-218.29h1.98l91.13,218.29h-37.92l-18.96-49.25Zm-11.04-28.8l-25.75-66.24-26.6,66.24h52.35Z"/>
    <path class="cls-1" d="m2752.48,486.21l-46.41-72.86h-33.11v72.86h-33.11v-209.65h58.01c23.02,0,41.46,5.95,55.33,17.85,13.87,11.91,20.8,28.42,20.8,49.53,0,12.86-2.69,24.82-8.07,35.85-5.38,11.04-13.82,19.54-25.33,25.49l50.09,80.92h-38.21Zm-79.52-105.12h29.43c13.2,0,22.78-3.69,28.72-11.09,5.94-7.39,8.91-15.7,8.91-24.91,0-5.37-1.13-10.8-3.4-16.27-2.26-5.47-6.13-10.17-11.6-14.11-5.47-3.93-12.64-5.9-21.51-5.9h-30.56v72.29Z"/>
    <path class="cls-1" d="m2966.15,276.55v32.25h-103.58v55.87h92.26v32.25h-92.26v57.02h107.54v32.25h-140.65v-209.65h136.69Z"/>
  </g>
  <g>
    <path class="cls-1" d="m1567.36,734.17c-10.66,4.03-22.31,6.05-34.95,6.05-21.32,0-39.95-4.75-55.89-14.25-15.95-9.5-28.21-22.27-36.79-38.3-8.59-16.03-12.88-33.64-12.88-52.85,0-20.92,4.29-39.64,12.88-56.16,8.58-16.51,20.56-29.42,35.94-38.73,15.38-9.31,32.87-13.97,52.5-13.97,12.07,0,23.25,1.63,33.54,4.9,10.28,3.27,19.39,7.39,27.31,12.38l-13.02,31.39c-15.28-10.94-30.85-16.42-46.7-16.42-12.08,0-23.35,3.31-33.82,9.94-10.47,6.62-18.82,15.65-25.05,27.07-6.23,11.43-9.34,23.95-9.34,37.58,0,14.4,2.87,27.31,8.63,38.73,5.75,11.42,13.96,20.35,24.62,26.78,10.66,6.44,22.97,9.65,36.93,9.65,10,0,19.01-1.53,27.03-4.61,8.02-3.07,14.76-7.01,20.23-11.81l13.87,29.95c-6.04,4.42-14.39,8.64-25.05,12.67Z"/>
    <path class="cls-1" d="m1742.11,688.67h-75l-19.81,49.25h-32.54l91.13-218.29h1.98l91.13,218.29h-37.92l-18.96-49.25Zm-11.04-28.8l-25.75-66.24-26.6,66.24h52.35Z"/>
    <path class="cls-1" d="m2042.09,520.77v217.14h-32.83v-121.24l-72.17,104.25h-.57l-70.47-99.36v116.35h-31.98v-217.14h.28l102.73,148.03,104.43-148.03h.57Z"/>
    <path class="cls-1" d="m2211.89,546.11c13.2,11.91,19.81,28.42,19.81,49.53,0,12.1-2.36,23.38-7.08,33.84-4.72,10.47-12.31,19.01-22.78,25.63-10.47,6.62-23.91,9.94-40.33,9.94h-29.71v72.86h-33.11v-209.66h58.3c23.39,0,41.69,5.95,54.9,17.86Zm-28.44,80.78c5.56-3.93,9.52-8.73,11.89-14.4,2.36-5.66,3.54-11.09,3.54-16.27,0-8.83-2.79-16.99-8.35-24.48-5.57-7.49-14.95-11.23-28.16-11.23h-30.56v72.29h29.71c9.06,0,16.37-1.97,21.93-5.9Z"/>
  </g>
</svg>