<?xml version="1.0" encoding="UTF-8"?>
<svg id="Layer_1" data-name="Layer 1" xmlns="http://www.w3.org/2000/svg" viewBox="0 0 1500 1500">
  <defs>
    <style>
      .cls-1 {
        opacity: .5;
      }
    </style>
  </defs>
  <g>
    <path d="m264.88,1226.59l11.02-12.34,23.51,21,63.91-71.57-23.51-21,11.02-12.34,61.72,55.12-11.02,12.34-23.51-21-63.91,71.57,23.51,21-11.02,12.34-61.72-55.12Z"/>
    <path d="m530.05,1257.27l-63.67,115.57-.46-.25-37.49-122.35-40.33,74.29-18.09-9.96,63.58-115.42.92.51,36.68,123.1,41.07-75.28,17.78,9.8Z"/>
    <path d="m586.21,1292.55c-6.04-1.81-11.21-1.9-15.54-.27-4.32,1.63-7.19,4.79-8.59,9.48-1.37,4.58-.31,9.07,3.19,13.47,3.49,4.4,8.76,9.29,15.79,14.68,5.4,3.93,9.84,7.91,13.32,11.93,3.48,4.03,5.92,8.8,7.31,14.33,1.39,5.53,1.01,11.87-1.13,19.03-1.94,6.48-5.32,11.87-10.13,16.15-4.82,4.28-10.76,7.07-17.85,8.36-7.08,1.29-14.82.68-23.2-1.83-7.38-2.21-14.3-5.53-20.77-9.96-6.47-4.43-11.89-9.5-16.28-15.19l13.28-12.65c3.2,4.37,7.31,8.43,12.34,12.19,5.02,3.76,9.94,6.35,14.75,7.79,5.92,1.77,11.55,1.9,16.87.39,5.32-1.51,8.87-5.23,10.65-11.15,1.4-4.69.7-9.17-2.1-13.42-2.81-4.25-7.18-8.66-13.12-13.24-6.16-4.64-11.16-8.91-14.98-12.8-3.83-3.89-6.72-8.59-8.66-14.1-1.94-5.51-1.89-11.68.15-18.5,2.98-9.95,8.76-16.95,17.34-21.02,8.58-4.07,18.48-4.67,29.68-1.8,8.05,2.41,14.84,5.45,20.38,9.11,5.54,3.67,10.43,7.96,14.68,12.89l-11.84,12.71c-8.87-8.62-17.38-14.15-25.54-16.59Z"/>
    <path d="m722.72,1299.72l-2.6,19.43-32.61-4.37-14.3,106.85-20.12-2.69,14.3-106.85-31.74-4.25,2.6-19.43,84.47,11.31Z"/>
    <path d="m762.13,1297.78l1.42,127.39-20.47.23-1.42-127.39,20.47-.23Z"/>
    <path d="m866.69,1286.06l2.83,19.39-32.55,4.75,15.58,106.67-20.09,2.93-15.58-106.67-31.69,4.63-2.83-19.39,84.33-12.32Z"/>
    <path d="m936.72,1364.48c3.83,3.1,8.25,5.08,13.27,5.95,5.02.88,10,.43,14.95-1.33,5.16-1.84,9.45-4.67,12.86-8.49,3.41-3.81,5.62-8.13,6.62-12.95,1.01-4.82.67-9.59-1.02-14.32l-27.38-76.81,18.96-6.76,27.56,77.31c3.06,8.57,3.71,16.92,1.96,25.03-1.75,8.12-5.53,15.32-11.34,21.6-5.81,6.29-13,10.95-21.57,14.01-8.57,3.06-17.07,3.98-25.49,2.77-8.42-1.21-15.85-4.41-22.28-9.61-6.44-5.2-11.18-12.08-14.24-20.66l-27.56-77.31,19.12-6.82,27.38,76.82c1.64,4.61,4.38,8.47,8.21,11.56Z"/>
    <path d="m1061.89,1198.84l10.05,16.83-28.25,16.87,55.27,92.55-17.43,10.41-55.27-92.55-27.5,16.42-10.05-16.83,73.17-43.69Z"/>
    <path d="m1139.93,1132.18l12.94,14.72-48.12,42.27,22.41,25.5,42.86-37.65,12.94,14.73-42.86,37.65,22.87,26.03,49.96-43.89,12.94,14.72-65.34,57.4-84.08-95.71,63.5-55.79Z"/>
  </g>
  <g>
    <path d="m164.73,1065.06c3.04,5.52,6.68,9.21,10.91,11.07,4.23,1.86,8.49,1.61,12.78-.76,4.19-2.31,6.57-6.26,7.15-11.85.58-5.58.25-12.76-1-21.54-1.1-6.59-1.49-12.54-1.16-17.85.33-5.31,1.94-10.43,4.82-15.35,2.88-4.92,7.59-9.19,14.12-12.8,5.92-3.27,12.1-4.75,18.54-4.44,6.44.31,12.64,2.49,18.6,6.52,5.96,4.04,11.06,9.89,15.29,17.55,3.72,6.74,6.34,13.96,7.86,21.65,1.52,7.69,1.85,15.11.99,22.24l-18.34-.27c.77-5.36.68-11.14-.28-17.34-.96-6.2-2.65-11.5-5.08-15.89-2.99-5.41-6.91-9.44-11.77-12.09-4.86-2.65-10-2.48-15.41.51-4.29,2.37-6.92,6.05-7.89,11.05-.97,5-.94,11.21.1,18.64,1.15,7.63,1.73,14.17,1.74,19.63.02,5.46-1.21,10.84-3.69,16.13-2.47,5.3-6.82,9.67-13.05,13.11-9.09,5.02-18.12,5.98-27.1,2.87-8.98-3.11-16.46-9.6-22.45-19.49-4.06-7.35-6.78-14.28-8.17-20.78-1.39-6.5-1.88-12.99-1.46-19.48l17.36-.79c.3,12.36,2.5,22.28,6.62,29.73Z"/>
    <path d="m141.16,987.11c-11.22-2.77-21.09-8.1-29.62-15.98-8.53-7.88-14.46-17.47-17.8-28.78-3.3-11.19-3.51-22.41-.63-33.66,2.88-11.25,8.29-21.15,16.23-29.7,7.94-8.55,17.45-14.46,28.52-17.72,11.3-3.34,22.54-3.58,33.72-.74,11.18,2.84,20.99,8.25,29.42,16.22,8.44,7.97,14.3,17.55,17.61,28.74,3.34,11.3,3.65,22.55.93,33.75-2.71,11.2-8,21-15.86,29.41-7.86,8.4-17.5,14.29-28.91,17.66-11.19,3.3-22.39,3.57-33.61.8Zm47.8-33.08c5.48-5.75,9.21-12.48,11.19-20.18,1.99-7.7,1.82-15.47-.49-23.3-2.28-7.72-6.29-14.2-12.03-19.44s-12.49-8.75-20.26-10.53c-7.76-1.78-15.62-1.5-23.56.84-7.94,2.34-14.71,6.41-20.3,12.2-5.59,5.79-9.38,12.5-11.39,20.15-2,7.65-1.86,15.33.42,23.05,2.31,7.83,6.38,14.39,12.19,19.67,5.82,5.28,12.63,8.8,20.45,10.57,7.82,1.77,15.7,1.48,23.65-.87,7.95-2.35,14.66-6.39,20.14-12.15Z"/>
    <path d="m66.12,753.59l19.56-1.32,3.84,56.74,35.79-2.42-3.34-49.41,19.38-1.31,3.34,49.41,52.38-3.54,1.38,20.43-127.11,8.6-5.22-77.17Z"/>
    <path d="m76.19,634.17l19.48,2.14-3.59,32.7,107.16,11.77-2.22,20.18-107.16-11.77-3.5,31.83-19.48-2.14,9.31-84.71Z"/>
    <path d="m244.6,533.04l-81.66,2.31,60.15,57.83-142.07,2.5,8.14-22.37,90.1,1.12-43.74-38.45-33.13.98,6.88-18.91,88.81-2.51-68.29-53.9,7.48-20.56,107.33,91.94Z"/>
    <path d="m271.46,414.37l-25.38,38.82,18.34,26.63-11.01,16.85-80.2-119.75.67-1.03,141.86,25.42-12.83,19.63-31.46-6.56Zm-18.38-3.86l-42.4-8.7,24.69,35.79,17.72-27.1Z"/>
    <path d="m376.27,340.97l-51.59-11.09-1.49,1.48-13.01,12.97,31.26,31.35-14.5,14.46-89.96-90.21,25.4-25.33c10.08-10.05,20.71-15.54,31.89-16.47,11.18-.93,21.3,3.14,30.36,12.23,5.52,5.54,9.47,11.85,11.85,18.95,2.38,7.1,2.33,14.44-.15,22.03l56.66,12.95-16.73,16.68Zm-79.92-10.51l12.89-12.85c5.78-5.76,8.39-11.54,7.82-17.31-.57-5.78-2.83-10.65-6.79-14.61-2.31-2.31-5.13-4.15-8.47-5.52-3.34-1.37-7.05-1.7-11.14-1-4.08.7-8.07,2.98-11.95,6.85l-13.38,13.35,31.02,31.1Z"/>
    <path d="m408.96,160.72l10.67,16.44-53.72,34.88,18.49,28.48,47.85-31.07,10.67,16.44-47.85,31.06,18.87,29.06,55.78-36.21,10.67,16.44-72.95,47.36-69.37-106.86,70.9-46.03Z"/>
    <path d="m614.81,102.93c-6.17,1.28-10.77,3.66-13.8,7.15-3.03,3.49-4.05,7.63-3.05,12.43.97,4.69,4.04,8.13,9.2,10.33,5.16,2.21,12.12,4.01,20.87,5.41,6.62.89,12.42,2.28,17.4,4.17,4.98,1.89,9.39,4.94,13.24,9.14,3.85,4.21,6.53,9.97,8.05,17.28,1.37,6.63.96,12.97-1.24,19.02-2.2,6.06-6.11,11.34-11.73,15.83-5.62,4.5-12.71,7.64-21.28,9.42-7.54,1.56-15.21,1.93-23.01,1.11-7.8-.82-14.98-2.7-21.54-5.63l5.68-17.44c4.89,2.32,10.44,3.94,16.65,4.86,6.21.92,11.77.87,16.68-.15,6.05-1.25,11.06-3.81,15.03-7.67,3.96-3.86,5.32-8.82,4.07-14.87-1-4.8-3.74-8.4-8.23-10.8-4.49-2.4-10.43-4.21-17.83-5.42-7.63-1.16-14.05-2.54-19.27-4.14-5.22-1.6-9.99-4.36-14.32-8.29-4.33-3.93-7.22-9.38-8.66-16.34-2.11-10.17-.35-19.08,5.27-26.74,5.62-7.66,14.04-12.89,25.25-15.69,8.23-1.71,15.64-2.26,22.26-1.67,6.62.59,12.96,2.05,19.05,4.36l-4.38,16.81c-11.9-3.37-22.02-4.19-30.36-2.46Z"/>
    <path d="m716.75,168.07c2.58,4.19,6.1,7.53,10.54,10.02,4.44,2.49,9.29,3.72,14.54,3.7,5.48-.02,10.46-1.27,14.95-3.74,4.48-2.47,7.99-5.81,10.54-10.02,2.55-4.21,3.81-8.82,3.79-13.84l-.36-81.55,20.12-.09.36,82.07c.04,9.1-2.11,17.19-6.46,24.27-4.34,7.08-10.3,12.62-17.86,16.62-7.57,4-15.9,6.02-25,6.06-9.1.04-17.42-1.91-24.96-5.84-7.54-3.93-13.49-9.42-17.84-16.46-4.35-7.04-6.54-15.11-6.58-24.21l-.36-82.07,20.3-.09.36,81.55c.02,4.9,1.32,9.45,3.91,13.63Z"/>
    <path d="m876.44,103.36c-6.18-1.22-11.35-.8-15.49,1.23-4.15,2.04-6.69,5.46-7.64,10.27-.92,4.7.56,9.06,4.47,13.1,3.9,4.04,9.61,8.4,17.13,13.09,5.75,3.39,10.56,6.92,14.42,10.59,3.85,3.67,6.74,8.19,8.66,13.56,1.91,5.37,2.15,11.72.71,19.04-1.31,6.64-4.15,12.32-8.52,17.05-4.38,4.73-10.03,8.08-16.96,10.04-6.93,1.97-14.68,2.11-23.27.42-7.56-1.49-14.77-4.12-21.63-7.91-6.87-3.79-12.75-8.3-17.67-13.55l12-13.87c3.6,4.04,8.09,7.69,13.45,10.94,5.36,3.26,10.51,5.36,15.43,6.33,6.07,1.19,11.68.78,16.83-1.24,5.15-2.02,8.33-6.06,9.52-12.13.95-4.81-.18-9.19-3.39-13.15-3.21-3.96-7.98-7.93-14.33-11.91-6.58-4.03-11.96-7.79-16.15-11.29-4.19-3.5-7.52-7.9-9.98-13.2-2.47-5.3-3.01-11.44-1.64-18.43,2-10.19,7.08-17.72,15.23-22.6,8.15-4.88,17.94-6.43,29.36-4.66,8.24,1.62,15.29,3.99,21.16,7.11,5.87,3.12,11.15,6.92,15.86,11.41l-10.56,13.8c-9.66-7.73-18.67-12.41-27.02-14.05Z"/>
    <path d="m1028.97,133.68l-7.05,18.29-30.69-11.84-38.8,100.58-18.94-7.31,38.8-100.58-29.88-11.53,7.05-18.29,79.51,30.68Z"/>
    <path d="m1064.2,265.42l-39.68-24.01-25.97,19.26-17.22-10.42,116.89-84.31,1.05.63-20.47,142.66-20.06-12.14,5.46-31.67Zm3.22-18.5l7.22-42.68-34.91,25.92,27.7,16.76Z"/>
    <path d="m1188.25,237.74l-81.92,97.57-15.68-13.17,81.92-97.57,15.68,13.17Z"/>
    <path d="m1300.17,358.13l-101.21,84.66-.34-.4,9.38-127.62-64.5,54.63-13.25-15.84,101.08-84.55.67.81-10.4,128.03,65.55-55.29,13.03,15.57Z"/>
    <path d="m1273.12,509.58l-20.85-41.43-32.24,2.51-9.05-17.98,143.82-9.29.55,1.09-93.16,109.97-10.54-20.95,21.46-23.93Zm12.56-13.96l28.8-32.32-43.35,3.4,14.55,28.92Z"/>
    <path d="m1338.78,630.15c-3.9,5.23-9.12,8.73-15.65,10.5-11.94,3.24-21.9,1.61-29.88-4.86-7.98-6.48-13.58-15.63-16.78-27.45l-10.4-38.34,122.96-33.34,9.11,33.61c3.48,12.84,3.56,23.51.25,32.02-3.31,8.51-10.04,14.14-20.17,16.89-6.42,1.74-12.34,1.86-17.76.37-5.42-1.49-10.23-4.39-14.42-8.69-.95,7.63-3.38,14.06-7.28,19.29Zm-35.59-12.56c4,3.39,8.76,4.33,14.28,2.84,5.85-1.59,9.46-5.01,10.81-10.28,1.35-5.26,1.11-11.27-.72-18.03l-4.44-16.38-33.44,9.07,4.81,17.73c1.8,6.64,4.7,11.66,8.7,15.05Zm38.85-46.98l4.62,17.06c1.53,5.63,4.31,9.44,8.36,11.42,4.04,1.99,8.54,2.31,13.5.96,5.4-1.47,8.99-4.28,10.77-8.45,1.77-4.17,1.83-9.29.18-15.37l-3.98-14.7-33.44,9.07Z"/>
    <path d="m1418.67,678.06l-126.47,15.4-2.47-20.33,126.47-15.39,2.47,20.32Z"/>
    <path d="m1422.6,747.31l-107.78-2.34-1.36,62.81-19.6-.43,1.81-83.28,127.37,2.77-.44,20.47Z"/>
    <path d="m1411.61,870.74l-125.69-20.79,3.34-20.2,125.69,20.79-3.34,20.2Z"/>
    <path d="m1379.67,990.73l-18.73-5.77,9.69-31.44-103.02-31.74,5.98-19.4,103.02,31.74,9.43-30.61,18.73,5.77-25.09,81.45Z"/>
    <path d="m1314.41,1121.82l-53.26-82.82-36.39-19.54,9.6-17.88,36.39,19.53,98.13-.75-11.84,22.05-70.91-.73,40.12,58.09-11.84,22.05Z"/>
  </g>
  <circle cx="517.96" cy="178.24" r="20"/>
  <circle cx="263.96" cy="1124.24" r="20"/>
  <circle cx="1222.96" cy="1125.24" r="20"/>
  <g>
    <path class="cls-1" d="m1091.84,390.16c-11.76,11.83-23.52,23.64-35.3,35.45-11.77,11.8-23.54,23.6-35.32,35.39,76.23,72.83,123.73,175.48,123.73,289.24,0,220.91-179.09,400-400,400-113.45,0-215.85-47.24-288.65-123.11-11.79,11.79-23.59,23.57-35.4,35.34-11.81,11.77-23.62,23.53-35.44,35.27,90.91,94.03,218.37,152.49,359.49,152.49,276.14,0,500-223.86,500-500,0-141.43-58.72-269.13-153.11-360.08Z"/>
    <path d="m744.86,300.24c.03-16.67.07-33.33.13-50-.01,0-.03,0-.04,0-275.4,0-498.78,222.66-499.98,497.78,16.67-.04,33.33-.07,50-.09,16.67-.02,33.33-.03,50-.04h0c8.07,0,16.15,0,24.22-.01,8.55,0,17.1,0,25.65,0,1.16-192.3,157.4-347.84,349.98-347.84,0-5.53,0-11.05,0-16.58,0-11.07,0-22.14,0-33.22h0c0-16.67.02-33.33.05-50Z"/>
    <path d="m985.25,495.78c-8.85,8.87-17.7,17.73-26.55,26.59-2.94,2.94-5.88,5.87-8.82,8.81-11.79,11.79-23.6,23.57-35.42,35.33,49.48,45.68,80.49,111.08,80.49,183.73,0,63.24-23.5,120.99-62.22,165.02,11.75,11.87,23.48,23.77,35.17,35.69h0c1.8,1.84,3.61,3.67,5.41,5.51,9.94,10.03,19.76,20.17,29.5,30.4,57.2-62.3,92.14-145.38,92.14-236.62,0-100.25-42.15-190.65-109.7-254.46Z"/>
    <path d="m835.53,1013c-3.26-8.71-6.51-17.42-9.76-26.13h0c-5.83-15.62-11.65-31.25-17.46-46.88-19.91,6.65-41.22,10.26-63.37,10.26-110.46,0-200-89.54-200-200,0-84.45,52.34-156.66,126.34-186-5.65-15.69-11.29-31.38-16.91-47.08-5.62-15.69-11.21-31.39-16.8-47.1-112.65,43.19-192.64,152.33-192.64,280.17,0,165.69,134.31,300,300,300,34.48,0,67.58-5.85,98.42-16.56-2.61-6.89-5.22-13.79-7.83-20.68Z"/>
    <path class="cls-1" d="m773.63,846.05c-9.09,2.72-18.71,4.2-28.69,4.2-55.23,0-100-44.77-100-100,0-41.11,24.82-76.41,60.28-91.78-5.68-15.7-11.32-31.41-16.97-47.13-54.74,22.36-93.31,76.12-93.31,138.9,0,82.84,67.16,150,150,150,16.04,0,31.49-2.53,45.99-7.2-5.78-15.66-11.55-31.33-17.3-47Z"/>
    <circle cx="744.95" cy="750.24" r="50"/>
  </g>
</svg>